<svg height="1913.878" width="2318.649" xmlns="http://www.w3.org/2000/svg"><path d="m715.311 1871.48-9.5-3.352-117.5-44.346-117.5-44.346-97-69.301-97-69.301-1.749-2.153-1.749-2.153-45.593-73-45.593-73-26.527-237.5-26.527-237.5-49.15-439.218-49.15-439.218 6.774-14.056 6.774-14.056 2.244-.986 2.244-.986 42.5-11.023 42.5-11.023 71-9.469 71-9.469 90.925-7.509 90.926-7.509 104.074-5.461 104.075-5.461 112.5-3.494 112.5-3.494 104.5-1.548 104.5-1.548 115.5.007 115.5.007 108.5 1.546 108.5 1.546 117.5 3.443 117.5 3.443 106.5 5.018 106.5 5.018 101 7.014 101 7.014 44 4.563 44 4.563.624.675.624.675-72.909 549.486-72.909 549.486-.743.743-.744.744-65.944 8.156-65.944 8.156-2.527-.973-2.527-.973-23-16.854-23-16.854-4-2.251-4-2.251-69.983-32.591-69.983-32.591-81.658-24.964-81.658-24.964-87.359-16.426-87.359-16.426-91-8.195-91-8.195-90 .582-90 .582-87 8.532-87 8.532-4.75 1.085-4.75 1.085.001.169v.169l2.087 5.5 2.087 5.5 5.277 11 5.277 11 10.492 19.278 10.492 19.278-1.235 7.722-1.235 7.722-51.794 330.5-51.794 330.5-3.578 3.695-3.578 3.695-60.449 56.055-60.449 56.055-1.051-.099-1.051-.099-9.5-3.352zm78.214-61.263 59.551-55.312.578-3.688.578-3.688 52.034-332.044 52.034-332.044.204-2.47.204-2.47-12.146-22.486-12.146-22.486-11.638-25.5-11.638-25.5-10.547-27.5-10.547-27.5-10.4-32.5-10.4-32.5-8.934-33.778-8.934-33.778-7.971-37.222-7.971-37.222-6.535-38.5-6.535-38.5-5.477-43-5.477-43-3.609-41-3.609-41-2.432-46.5-2.432-46.5-.598-56-.598-56 .954-38 .954-38-.357-.407-.357-.407-133.26-8.351-133.26-8.351-98-11.548-98-11.548-47-12.049-47-12.049-.298-.276-.298-.276-2.925-10.813-2.925-10.813.527-.527.527-.527.725 1.173.725 1.173 2.434 9.567 2.434 9.567 3.536.914 3.537.914 43 11.014 43 11.014 98 11.544 98 11.544 133.831 8.39 133.831 8.39 1.033 1.033 1.034 1.033-1.065 50.335-1.065 50.335.902 48.5.902 48.5 1.06 25.5 1.06 25.5.993 17 .992 17 3.498 40 3.498 40 5.568 43.772 5.568 43.772 2.335 13.228 2.335 13.228 4.544 26 4.544 26 7.593 35.5 7.593 35.5 9.389 35.5 9.389 35.5 9.939 31 9.939 31 11.23 29.358 11.23 29.358 4.902 10.498 4.902 10.498 1.274-.489 1.274-.489 5.474-1.115 5.474-1.115 87.911-8.502 87.911-8.502h91.137 91.137l88.452 7.959 88.452 7.959 63.5 11.904 63.5 11.904 23 4.202 23 4.203 82 25.056 82 25.056 71.974 33.521 71.974 33.521 26.026 19.035 26.026 19.036 2 .366 2 .366 64.935-8.062 64.935-8.062.223-.231.222-.231 16.196-123 16.196-123 56.437-426.376 56.437-426.376-.333-.333-.333-.333-37.957-4.054-37.957-4.054-106-7.458-106-7.458-107-5.047-107-5.047-117.5-3.443-117.5-3.443-108.5-1.546-108.5-1.546-115.5-.007-115.5-.007-104.5 1.546-104.5 1.546-112.5 3.5-112.5 3.5-104.075 5.457-104.074 5.457-90.926 7.507-90.925 7.507-71 9.508-71 9.508-43.5 11.3-43.5 11.3-6.708 12.947-6.708 12.947-.068 3-.068 3 75.658 675 75.658 675 45.151 72.462 45.151 72.462 91.966 65.782 91.966 65.782 7.114 5.175 7.114 5.175 126.386 47.653 126.386 47.653 4.081-3.572 4.081-3.572 59.551-55.312z" fill="#ac9d93" stroke="#000" stroke-width="60"/></svg>